<svg xmlns="http://www.w3.org/2000/svg" width="1001" height="1048" viewBox="0 0 1001 1048">
<g>
<path d="M 865.50 406.00 L 865.50 491.50 L 679.25 491.64 C499.53,491.77 493.00,491.71 493.00,489.94 C493.00,488.94 492.65,487.90 492.22,487.64 C491.79,487.37 491.62,483.63 491.83,479.33 C492.48,466.25 492.08,148.50 491.40,133.69 L 490.77 119.88 L 575.13 120.28 C647.09,120.63 661.11,120.93 670.43,122.34 C727.59,130.99 768.39,151.01 804.50,188.13 C816.51,200.47 829.00,215.59 829.00,217.77 C829.00,218.28 829.90,219.50 831.00,220.50 C832.10,221.50 833.00,222.67 833.00,223.10 C833.00,223.54 834.30,225.83 835.90,228.20 C840.13,234.48 849.24,253.97 853.33,265.50 C857.44,277.09 862.39,297.86 864.23,311.22 C865.18,318.14 865.50,342.24 865.50,406.00 ZM 556.22 427.96 C557.47,428.46 562.56,428.90 567.52,428.94 C577.90,429.01 581.60,427.58 586.41,421.63 C588.77,418.72 589.46,416.74 589.81,411.98 L 590.24 406.00 L 726.00 406.00 L 726.02 411.25 C726.04,417.99 729.17,423.68 734.52,426.71 C737.81,428.57 740.03,428.97 747.28,428.98 C752.43,428.99 757.40,428.44 759.30,427.65 C763.57,425.86 768.63,419.98 769.94,415.28 C770.58,412.97 770.99,397.63 770.99,375.80 L 771.00 340.11 L 773.50 335.40 C776.53,329.70 776.77,321.68 774.11,315.12 C772.58,311.35 771.64,310.47 767.42,308.87 C764.71,307.84 759.97,307.00 756.87,307.00 L 751.24 307.00 L 745.41 293.79 C736.16,272.86 729.77,264.97 716.71,258.35 C705.93,252.89 698.90,251.88 667.50,251.30 C610.33,250.23 595.99,253.51 581.25,271.06 C577.81,275.15 574.73,279.40 574.40,280.50 C573.57,283.34 563.83,305.27 562.80,306.64 C562.33,307.26 559.09,307.95 555.59,308.17 C540.92,309.11 535.03,321.12 542.01,335.86 L 545.02 342.23 L 544.95 377.36 C544.90,396.69 545.18,414.38 545.55,416.68 C546.08,419.89 547.12,421.56 550.08,423.95 C552.20,425.65 554.96,427.45 556.22,427.96 ZM 726.75 313.37 C723.41,314.27 585.20,314.13 584.64,313.23 C583.95,312.11 592.42,291.48 595.46,286.89 C598.83,281.79 605.12,277.31 611.44,275.50 C622.95,272.21 671.61,270.70 679.17,273.40 C681.38,274.19 683.38,274.36 684.17,273.84 C685.95,272.67 697.23,273.79 703.80,275.79 C713.53,278.74 718.52,284.64 725.38,301.26 C729.62,311.53 729.74,312.57 726.75,313.37 ZM 737.00 379.00 C737.00,379.61 732.22,380.00 724.67,380.00 C713.08,380.00 712.22,379.86 710.17,377.69 C705.81,373.04 708.28,363.42 714.67,360.18 C718.73,358.12 731.86,356.00 740.50,356.00 C747.23,356.00 749.00,357.83 749.00,364.75 C749.00,369.44 748.66,370.17 744.75,373.91 C742.41,376.15 739.71,377.98 738.75,377.99 C737.79,378.00 737.00,378.45 737.00,379.00 ZM 580.00 379.18 C580.00,380.01 579.29,380.11 577.50,379.51 C576.95,379.33 575.34,378.92 573.92,378.61 C572.50,378.30 570.14,376.93 568.67,375.57 C566.32,373.39 566.00,372.34 566.00,366.77 C566.00,362.50 566.54,359.68 567.65,358.08 C569.26,355.79 569.60,355.74 579.12,356.36 C594.18,357.35 598.87,358.64 603.25,363.02 C606.48,366.24 607.00,367.40 607.00,371.28 C607.00,376.15 606.11,377.00 600.98,377.00 C599.40,377.00 597.81,377.50 597.43,378.12 C596.97,378.86 593.90,379.09 588.37,378.80 C583.77,378.56 580.00,378.73 580.00,379.18 Z" fill="rgb(184,221,203)"/>
<path d="M 500.31 491.16 C494.54,491.06 491.48,490.96 491.41,490.85 C490.96,490.13 490.52,163.22 490.91,127.69 L 490.96 123.94 L 491.40 133.69 C492.08,148.50 492.48,466.25 491.83,479.33 C491.62,483.63 491.79,487.37 492.22,487.64 C492.65,487.90 493.00,488.94 493.00,489.94 C493.00,490.50 493.66,490.89 500.31,491.16 ZM 775.80 321.96 C775.47,319.97 774.80,318.14 773.80,316.62 C770.14,311.04 765.72,308.69 757.70,308.06 L 750.59 307.50 L 748.28 301.00 C747.18,297.91 744.56,291.85 742.09,286.61 C743.17,288.82 744.27,291.21 745.41,293.79 L 751.24 307.00 L 756.87 307.00 C759.97,307.00 764.71,307.84 767.42,308.87 C771.64,310.47 772.58,311.35 774.11,315.12 C774.99,317.29 775.55,319.61 775.80,321.96 ZM 580.00 379.18 C580.00,378.73 583.77,378.56 588.37,378.80 C593.90,379.09 596.97,378.86 597.43,378.12 C597.81,377.50 599.40,377.00 600.98,377.00 C605.24,377.00 606.58,376.41 606.91,373.41 C606.70,375.51 606.10,376.90 605.00,378.00 C603.21,379.79 601.73,379.99 590.75,379.92 C586.35,379.89 582.29,379.80 579.84,379.69 C579.95,379.58 580.00,379.40 580.00,379.18 ZM 737.00 379.00 C737.00,378.45 737.79,378.00 738.75,377.99 C739.71,377.98 742.41,376.15 744.75,373.91 C748.39,370.43 748.94,369.56 748.99,365.67 C749.00,365.99 749.00,366.32 749.00,366.65 C749.00,374.73 747.41,377.01 740.50,378.90 C739.48,379.18 737.38,379.43 734.76,379.63 C736.21,379.46 737.00,379.25 737.00,379.00 ZM 697.65 274.38 C691.78,273.35 685.47,272.99 684.17,273.84 C683.38,274.36 681.38,274.19 679.17,273.40 C676.21,272.34 666.92,271.93 656.02,272.02 C669.39,271.80 682.27,272.09 689.50,273.06 C692.52,273.47 695.22,273.89 697.65,274.38 ZM 735.06 274.17 C727.64,263.72 718.06,257.51 704.31,253.89 C703.59,253.70 702.88,253.53 702.16,253.37 C707.90,254.39 711.94,255.94 716.71,258.35 C724.54,262.32 729.97,266.75 735.06,274.17 ZM 715.24 282.91 C718.92,286.92 721.84,292.68 725.38,301.26 C721.81,292.60 718.74,286.84 715.24,282.91 ZM 747.59 358.15 C746.36,356.54 744.16,356.00 740.50,356.00 C744.24,356.00 746.39,356.45 747.59,358.15 ZM 606.64 367.72 C606.19,366.19 605.23,364.99 603.25,363.02 C605.23,365.00 606.19,366.19 606.64,367.72 Z" fill="rgb(193,223,208)"/>
<path d="M 681.50 882.11 C669.77,884.10 663.73,884.37 619.50,884.91 C592.55,885.23 552.39,885.38 530.25,885.24 L 489.99 884.98 L 490.50 512.50 L 678.29 512.25 L 866.08 511.99 L 865.75 605.75 C865.39,707.75 865.54,704.81 859.50,728.06 C854.64,746.74 850.09,757.98 839.05,778.50 C829.71,795.87 802.88,825.69 784.00,839.68 C754.43,861.59 721.05,875.41 681.50,882.11 ZM 617.00 789.06 C627.17,789.37 653.93,789.46 676.46,789.26 C721.85,788.85 721.46,788.91 726.97,782.22 C732.11,775.99 732.31,773.29 731.71,718.62 C731.41,691.06 731.13,668.39 731.08,668.25 C731.04,668.11 698.38,668.00 658.50,668.00 L 586.00 668.00 L 586.00 721.55 L 586.00 724.20 C586.00,770.47 586.00,776.81 588.98,781.07 C589.51,781.83 590.13,782.52 590.87,783.35 C594.81,787.84 597.72,788.48 617.00,789.06 ZM 586.43 658.69 C586.84,659.75 600.46,660.00 658.86,660.00 L 730.78 660.00 L 731.35 657.75 C731.66,656.51 731.71,638.95 731.47,618.72 C731.08,587.30 730.78,581.47 729.39,578.72 C727.08,574.15 725.04,572.06 720.79,569.89 C717.28,568.10 714.02,568.00 659.25,568.00 L 601.42 568.00 L 597.02 570.25 C594.60,571.49 591.24,574.23 589.56,576.34 L 586.50 580.18 L 586.22 618.78 C586.06,640.01 586.16,657.97 586.43,658.69 ZM 616.17 730.35 C615.17,731.26 613.93,731.99 613.42,731.97 C612.09,731.93 608.62,729.85 607.77,728.59 C607.36,727.99 607.02,718.64 607.02,707.82 C607.00,686.27 607.32,685.00 612.87,685.00 C617.81,685.00 618.00,685.86 618.00,708.04 C618.00,726.78 617.83,728.84 616.17,730.35 ZM 616.80 644.80 C615.01,646.59 610.53,646.25 608.65,644.17 C607.26,642.63 607.00,639.83 607.00,626.39 C607.00,608.63 607.76,606.00 612.86,606.00 C617.73,606.00 618.00,607.06 618.00,626.00 C618.00,638.36 617.64,643.96 616.80,644.80 Z" fill="rgb(217,199,225)"/>
<path d="M 469.73 120.40 C469.92,120.59 469.94,125.41 469.79,131.12 L 469.50 141.50 L 468.55 134.00 C468.03,129.88 467.72,125.90 467.86,125.18 L 467.88 125.07 C467.99,124.54 468.08,124.07 467.96,123.68 C467.19,121.17 458.02,121.24 391.20,121.71 L 389.20 121.72 C347.02,122.02 311.38,122.29 310.00,122.32 C308.62,122.36 305.70,122.23 303.50,122.05 C300.15,121.77 300.63,121.58 306.50,120.90 C313.06,120.14 468.99,119.66 469.73,120.40 ZM 376.42 279.89 C376.23,308.31 375.77,323.63 375.08,324.32 C374.36,325.04 373.96,310.96 373.77,278.18 C373.62,252.23 373.79,231.00 374.15,231.00 C376.27,231.00 376.69,240.03 376.42,279.89 ZM 116.48 247.97 C114.47,251.86 112.00,254.39 112.00,252.57 C112.00,251.15 122.57,231.07 127.23,223.62 C133.85,213.06 138.66,206.61 148.62,195.00 C157.51,184.63 162.72,179.39 163.44,180.11 C164.06,180.72 158.17,188.08 150.92,195.74 C147.66,199.19 145.00,202.35 145.00,202.77 C145.00,203.20 142.98,205.75 140.50,208.45 C138.02,211.14 136.00,213.65 136.00,214.03 C136.00,214.40 134.95,215.84 133.67,217.22 C132.39,218.61 130.33,221.71 129.09,224.12 C127.85,226.53 125.97,229.18 124.91,230.01 C123.85,230.85 122.80,232.42 122.59,233.51 C122.12,235.97 119.54,242.07 116.48,247.97 ZM 95.67 430.26 C95.47,449.93 95.02,466.32 94.66,466.68 C94.29,467.04 94.07,439.70 94.16,405.92 C94.30,351.07 94.41,347.18 95.17,369.50 C95.65,383.25 95.87,410.59 95.67,430.26 ZM 376.05 384.50 C376.15,404.84 375.80,421.18 375.22,423.50 C374.52,426.33 374.23,414.92 374.23,384.50 C374.23,359.01 374.57,343.13 375.06,345.50 C375.52,347.70 375.97,365.25 376.05,384.50 ZM 241.32 135.77 C240.11,136.45 237.86,136.98 236.32,136.96 L 233.50 136.92 L 236.05 135.53 C239.89,133.44 261.10,127.49 273.00,125.15 C284.98,122.81 298.66,121.45 295.50,122.93 C294.40,123.44 291.43,123.89 288.91,123.93 C286.38,123.97 282.11,124.67 279.41,125.49 C276.71,126.31 273.33,126.98 271.90,126.99 C270.48,127.00 267.78,127.76 265.91,128.70 C264.04,129.63 260.71,130.74 258.50,131.16 C250.34,132.73 243.44,134.58 241.32,135.77 ZM 104.00 284.07 C104.00,286.50 103.30,288.32 101.88,289.60 L 99.75 291.50 L 100.44 288.00 C102.37,278.26 110.61,254.00 111.98,254.00 C113.42,254.00 107.87,274.91 105.55,278.23 C104.70,279.45 104.00,282.08 104.00,284.07 ZM 203.85 153.00 C196.44,156.67 192.95,156.93 198.50,153.39 C204.13,149.79 230.19,137.00 231.87,137.00 C234.73,137.00 228.27,140.85 219.99,144.09 C215.32,145.91 211.14,147.99 210.70,148.70 C210.26,149.41 207.18,151.34 203.85,153.00 ZM 168.48 178.06 C167.87,179.98 165.00,180.84 165.00,179.10 C165.00,177.85 178.10,166.87 186.75,160.89 C190.74,158.14 194.00,156.27 194.00,156.75 C194.00,157.84 181.17,169.00 179.92,169.00 C178.12,169.00 169.09,176.15 168.48,178.06 ZM 99.62 302.00 C99.42,309.36 98.85,313.40 97.71,315.50 L 96.08 318.50 L 96.08 314.00 C96.08,311.52 96.94,305.45 97.99,300.50 L 99.91 291.50 ZM 96.70 333.17 C96.40,335.41 95.67,337.73 95.08,338.32 C93.77,339.63 93.68,330.63 94.96,327.50 C95.73,325.63 95.83,325.62 96.52,327.30 C96.92,328.29 97.00,330.93 96.70,333.17 ZM 372.82 436.20 C372.64,437.44 371.02,439.26 369.13,440.36 C365.85,442.27 365.78,442.28 366.86,440.41 C368.40,437.75 371.69,434.00 372.48,434.00 C372.84,434.00 373.00,434.99 372.82,436.20 ZM 361.41 447.14 C360.71,448.28 358.00,448.25 358.00,447.11 C358.00,446.00 360.59,444.93 361.38,445.71 C361.69,446.02 361.71,446.67 361.41,447.14 Z" fill="rgb(239,191,190)"/>
<path d="M 364.64 786.83 C363.46,787.40 361.38,788.13 360.00,788.44 C357.88,788.92 357.81,788.87 359.50,788.09 C360.60,787.58 362.26,786.93 363.19,786.64 C367.98,785.14 367.94,785.66 368.33,716.68 C368.53,681.09 369.01,651.65 369.39,651.27 C370.17,650.49 382.46,662.37 384.11,665.50 C384.69,666.60 381.77,663.91 377.62,659.53 L 370.07 651.55 L 369.79 716.03 C369.48,784.73 369.50,784.45 364.64,786.83 ZM 339.00 787.95 C351.56,788.42 339.51,788.64 301.50,788.65 C270.24,788.65 250.58,788.35 257.00,787.96 C271.79,787.06 315.24,787.06 339.00,787.95 Z" fill="rgb(244,233,230)"/>
<path d="M 354.00 244.98 L 354.00 406.00 L 301.50 406.00 C255.50,406.00 249.00,405.81 249.00,404.50 C249.00,402.80 250.57,402.49 251.50,404.00 C251.90,404.65 269.39,404.99 300.81,404.97 C339.71,404.94 349.85,404.67 351.25,403.61 C352.89,402.36 353.00,397.45 353.00,325.50 C353.00,256.90 352.83,248.60 351.43,247.57 C349.67,246.29 252.09,246.49 250.85,247.78 C250.47,248.18 249.95,249.85 249.69,251.50 C249.41,253.32 249.28,252.73 249.37,250.00 L 249.50 245.50 L 301.75 245.24 Z" fill="rgb(243,198,199)"/>
<path d="M 116.48 247.97 C119.54,242.07 122.12,235.97 122.59,233.51 C122.80,232.42 123.85,230.85 124.91,230.01 C125.97,229.18 127.85,226.53 129.09,224.12 C130.33,221.71 132.39,218.61 133.67,217.22 C134.95,215.84 136.00,214.40 136.00,214.03 C136.00,213.65 138.02,211.14 140.50,208.45 C142.98,205.75 145.00,203.20 145.00,202.77 C145.00,202.35 147.66,199.19 150.92,195.74 C158.17,188.08 164.06,180.72 163.44,180.11 C163.39,180.06 163.33,180.04 163.25,180.04 C164.06,179.56 164.24,179.81 163.52,180.96 C163.20,181.49 163.87,182.87 165.03,184.03 C167.74,186.74 167.09,188.50 163.37,188.50 C159.96,188.50 154.59,192.56 153.51,195.96 C153.02,197.51 153.14,198.03 153.88,197.57 C155.70,196.45 153.88,200.28 151.54,202.51 C150.37,203.61 148.69,204.37 147.78,204.20 C146.67,203.98 145.52,205.30 144.18,208.34 C142.94,211.13 141.14,213.30 139.35,214.15 C136.91,215.32 136.46,216.18 136.20,220.15 C135.96,223.91 135.48,224.93 133.70,225.50 C132.49,225.90 131.16,226.17 130.75,226.11 C129.91,225.99 129.90,226.04 129.67,231.29 C129.57,233.37 128.94,235.42 128.25,235.85 C127.41,236.37 127.15,238.24 127.46,241.55 C127.77,244.88 127.61,246.00 126.97,244.99 C126.34,244.00 126.03,243.92 126.02,244.75 C126.01,245.44 125.36,246.00 124.57,246.00 C123.78,246.00 123.00,247.01 122.82,248.25 C122.64,249.49 121.49,250.94 120.25,251.49 C119.01,252.03 118.00,253.07 118.00,253.80 C118.00,254.52 117.56,254.84 117.01,254.51 C116.44,254.16 116.28,254.56 116.62,255.45 C116.95,256.30 117.55,257.00 117.95,257.00 C118.36,257.00 118.77,259.42 118.87,262.38 C119.01,266.72 118.52,268.55 116.34,271.88 C114.86,274.14 113.07,276.00 112.36,276.00 C111.46,276.00 111.00,278.27 110.79,283.75 C110.53,290.69 110.26,291.60 108.25,292.49 C107.01,293.03 106.00,293.84 106.00,294.30 C106.00,294.75 105.55,294.84 105.00,294.50 C104.45,294.16 103.49,294.20 102.86,294.59 C102.18,295.00 103.50,296.14 106.11,297.39 C111.17,299.82 111.69,301.90 107.69,303.82 C104.32,305.43 102.57,309.32 104.00,312.00 C104.67,313.26 104.66,314.78 103.94,316.65 C103.36,318.18 103.01,320.89 103.16,322.66 C103.32,324.44 103.12,326.22 102.72,326.62 C102.32,327.01 102.77,328.19 103.71,329.23 C105.15,330.82 105.38,332.97 105.18,342.97 L 104.94 354.82 L 108.02 357.01 C111.58,359.55 111.47,360.80 107.51,362.99 L 104.66 364.57 L 104.82 411.82 C104.96,452.34 105.20,459.50 106.54,462.07 C107.99,464.88 107.95,465.26 105.97,468.05 C104.34,470.33 104.01,471.78 104.55,474.26 C104.94,476.04 105.76,477.83 106.38,478.23 C106.99,478.64 114.80,478.98 123.71,478.98 C139.03,479.00 139.99,479.11 141.03,481.05 C141.63,482.18 141.98,484.31 141.81,485.80 L 141.50 488.50 L 124.00 489.04 C114.38,489.33 110.21,489.67 114.75,489.79 C119.44,489.91 123.00,490.43 123.00,491.00 C123.00,492.17 95.36,492.41 94.68,491.25 C94.44,490.84 94.17,455.17 94.09,412.00 C94.02,376.81 94.09,354.06 94.49,338.12 C94.65,338.46 94.84,338.56 95.08,338.32 C95.67,337.73 96.40,335.41 96.70,333.17 C97.00,330.93 96.92,328.29 96.52,327.30 C95.83,325.62 95.73,325.63 94.96,327.50 C94.92,327.60 94.88,327.71 94.84,327.83 C95.43,314.52 96.42,306.91 98.01,299.00 C98.73,295.43 99.51,291.92 100.35,288.46 L 99.75 291.50 L 101.88 289.60 C103.30,288.32 104.00,286.50 104.00,284.07 C104.00,282.08 104.70,279.45 105.55,278.23 C107.87,274.91 113.42,254.00 111.98,254.00 C111.79,254.00 111.46,254.48 111.04,255.32 C111.37,254.52 111.70,253.71 112.04,252.91 C112.37,253.99 114.62,251.56 116.48,247.97 ZM 469.73 120.40 C468.99,119.66 313.06,120.14 306.50,120.90 C300.63,121.58 300.15,121.77 303.50,122.05 C305.70,122.23 308.62,122.36 310.00,122.32 C311.38,122.29 347.02,122.02 389.20,121.72 L 391.20 121.71 C458.02,121.24 467.19,121.17 467.96,123.68 C468.08,124.07 467.99,124.54 467.88,125.07 L 467.86 125.18 C467.72,125.90 468.03,129.88 468.55,134.00 L 469.38 140.58 C469.27,141.51 469.13,142.19 469.00,142.50 C468.27,144.21 468.13,144.25 468.07,142.75 C468.03,141.79 467.55,141.00 467.00,141.00 C466.45,141.00 466.00,138.75 466.00,136.00 C466.00,131.11 465.93,131.00 463.00,131.00 C461.35,131.00 460.00,130.55 460.00,130.00 C460.00,129.45 461.35,129.00 463.00,129.00 C464.65,129.00 466.00,128.52 466.00,127.94 C466.00,127.36 466.36,127.10 466.79,127.37 C467.23,127.64 467.65,126.99 467.73,125.93 C467.86,124.24 467.19,124.00 462.49,124.00 C458.52,124.00 456.86,124.43 456.18,125.65 C455.36,127.11 453.00,127.27 435.88,127.07 C413.53,126.80 358.93,126.55 354.50,126.70 C352.85,126.75 349.02,126.84 346.00,126.88 C342.98,126.93 336.85,127.08 332.39,127.22 C327.48,127.37 323.73,127.03 322.89,126.35 C322.12,125.73 317.87,125.16 313.42,125.09 C306.42,124.98 305.10,125.23 303.47,127.04 C301.74,128.95 300.88,129.06 293.04,128.46 C286.82,127.97 282.94,128.20 278.75,129.30 C275.44,130.17 273.00,130.40 273.00,129.85 C273.00,129.32 272.44,129.23 271.75,129.65 C271.07,130.08 268.48,130.75 266.00,131.15 C257.25,132.56 252.75,133.79 252.02,134.96 C251.62,135.62 247.99,137.02 243.95,138.08 C239.92,139.14 236.30,140.52 235.91,141.15 C235.52,141.78 234.57,142.05 233.80,141.75 C231.07,140.70 225.98,143.81 224.46,147.45 C222.99,150.95 221.45,151.76 216.00,151.85 C213.83,151.88 213.74,151.76 215.26,150.89 C216.22,150.34 217.46,150.16 218.00,150.50 C218.55,150.84 218.72,150.44 218.40,149.60 C217.98,148.52 216.92,148.24 214.66,148.63 C212.34,149.02 211.89,148.90 212.95,148.15 C213.75,147.59 214.76,147.35 215.20,147.62 C215.64,147.90 216.00,147.61 216.00,146.99 C216.00,146.47 215.54,146.25 214.74,146.34 C216.26,145.62 218.08,144.83 219.99,144.09 C227.81,141.03 234.00,137.43 232.27,137.04 C233.41,136.59 234.56,136.15 235.72,135.71 L 233.50 136.92 L 236.32 136.96 C237.86,136.98 240.11,136.45 241.32,135.77 C243.44,134.58 250.34,132.73 258.50,131.16 C260.71,130.74 264.04,129.63 265.91,128.70 C267.78,127.76 270.48,127.00 271.90,126.99 C273.33,126.98 276.71,126.31 279.41,125.49 C282.11,124.67 286.38,123.97 288.91,123.93 C291.43,123.89 294.40,123.44 295.50,122.93 C297.95,121.78 290.25,122.34 281.08,123.75 C291.54,122.05 303.27,120.67 315.00,119.80 C316.38,119.70 351.81,119.70 393.75,119.81 L 470.00 120.00 L 469.93 130.25 C469.91,133.34 469.77,136.40 469.58,138.71 L 469.79 131.12 C469.94,125.41 469.92,120.59 469.73,120.40 ZM 215.64 490.50 C216.12,491.75 214.96,492.00 208.61,492.00 C202.51,492.00 201.00,491.70 201.00,490.50 C201.00,489.29 199.23,488.97 191.75,488.82 L 182.50 488.64 L 190.00 488.07 C197.44,487.50 197.50,487.48 197.84,484.50 C197.98,483.21 198.04,482.22 198.50,481.46 C199.96,479.00 205.58,479.00 231.80,479.00 C232.71,479.00 233.63,479.00 234.59,479.00 C268.23,479.00 268.95,479.04 270.03,481.06 C270.64,482.19 270.84,484.46 270.48,486.10 L 269.82 489.09 L 244.66 489.00 C230.82,488.95 218.50,488.93 217.28,488.95 C215.73,488.99 215.24,489.45 215.64,490.50 ZM 340.00 491.07 C340.00,491.58 337.75,492.00 335.00,492.00 C331.22,492.00 330.00,491.63 330.00,490.50 C330.00,489.67 329.11,489.00 328.00,489.00 C325.50,489.00 325.24,484.53 327.56,481.22 C329.09,479.04 329.50,479.00 351.52,479.00 C372.25,479.00 374.00,479.14 374.91,480.84 C375.45,481.85 375.64,483.65 375.33,484.84 C374.92,486.42 375.22,487.00 376.44,487.00 C377.38,487.00 377.83,487.47 377.46,488.07 C377.04,488.75 372.51,489.09 365.15,488.99 C349.41,488.78 336.11,489.13 338.25,489.69 C339.21,489.94 340.00,490.56 340.00,491.07 ZM 376.42 279.89 C376.69,240.03 376.27,231.00 374.15,231.00 C373.79,231.00 373.62,252.23 373.77,278.18 C373.91,302.75 374.17,316.82 374.60,322.02 C374.09,317.62 373.90,305.92 373.67,277.71 C373.45,251.74 373.10,228.61 372.89,226.30 C372.67,223.91 372.88,222.48 373.37,222.97 C373.85,223.45 374.93,223.58 375.77,223.26 C377.01,222.78 377.17,223.22 376.62,225.59 C376.20,227.38 376.28,227.99 376.82,227.18 C377.88,225.60 379.25,228.57 381.50,237.30 L 381.56 237.52 C382.73,242.04 383.15,243.68 382.64,244.94 C382.34,245.67 381.72,246.28 380.75,247.25 L 378.50 249.50 L 378.50 290.25 C378.50,312.66 378.16,331.00 377.75,331.00 C377.34,331.00 377.00,329.38 377.00,327.39 C377.00,324.63 376.66,323.92 375.53,324.35 C375.39,324.41 375.26,324.38 375.14,324.23 C375.79,322.80 376.23,307.55 376.42,279.89 ZM 406.00 491.08 C406.00,491.59 401.95,492.00 397.00,492.00 C389.67,492.00 388.00,491.72 388.00,490.50 C388.00,489.48 386.96,488.99 384.75,488.97 C382.06,488.94 381.80,488.76 383.25,487.92 C384.21,487.36 385.00,485.99 385.00,484.88 C385.00,483.78 385.47,482.00 386.04,480.93 C386.96,479.21 388.22,479.00 397.84,479.00 C409.54,479.00 411.00,479.58 411.00,484.20 C411.00,485.74 411.48,487.00 412.06,487.00 C412.64,487.00 412.84,487.45 412.50,488.00 C412.16,488.55 410.00,489.04 407.69,489.08 C405.39,489.12 404.06,489.38 404.75,489.66 C405.44,489.94 406.00,490.58 406.00,491.08 ZM 467.00 488.00 C467.00,488.63 460.35,489.00 449.06,489.00 C438.18,489.00 430.87,488.61 430.50,488.00 C430.16,487.45 430.36,487.00 430.94,487.00 C431.52,487.00 432.00,485.74 432.00,484.20 C432.00,482.66 432.54,480.86 433.20,480.20 C434.72,478.68 458.44,478.48 457.50,480.00 C457.16,480.55 457.77,481.00 458.86,481.00 C462.35,481.00 464.00,482.16 464.00,484.61 C464.00,486.07 464.58,487.00 465.50,487.00 C466.33,487.00 467.00,487.45 467.00,488.00 ZM 376.05 384.50 C375.97,365.25 375.52,347.70 375.06,345.50 C374.93,344.84 374.80,345.59 374.69,347.57 C374.78,345.42 374.89,344.47 375.00,345.00 C375.41,346.93 375.81,347.60 375.90,346.50 C375.99,345.40 376.78,343.60 377.65,342.50 C379.20,340.55 379.22,340.56 378.68,343.00 C377.83,346.80 377.64,409.25 378.48,411.24 C379.44,413.53 377.04,423.68 375.95,421.92 C375.78,421.64 375.61,421.54 375.46,421.61 C375.89,416.31 376.13,401.86 376.05,384.50 ZM 162.00 490.50 C162.00,491.55 160.94,492.00 158.50,492.00 C154.86,492.00 153.71,490.48 156.75,489.69 C157.71,489.44 156.81,489.18 154.75,489.12 C151.09,489.00 151.00,488.90 151.00,485.20 C151.00,480.25 152.41,479.00 158.00,479.00 C163.30,479.00 165.00,480.26 165.00,484.20 C165.00,485.74 165.48,487.00 166.06,487.00 C166.64,487.00 166.84,487.45 166.50,488.00 C166.16,488.55 165.01,489.00 163.94,489.00 C162.87,489.00 162.00,489.67 162.00,490.50 ZM 203.85 153.00 C207.18,151.34 210.26,149.41 210.70,148.70 C210.78,148.58 210.97,148.41 211.25,148.22 C211.36,148.61 211.69,149.14 212.18,149.93 C213.29,151.73 213.27,152.21 212.00,153.02 C211.18,153.54 209.19,153.98 207.58,153.98 C204.29,154.00 200.89,156.54 201.61,158.43 C202.34,160.32 199.33,162.30 196.54,161.76 C195.17,161.50 194.31,161.70 194.63,162.21 C194.94,162.72 194.37,162.99 193.35,162.82 C192.33,162.64 191.59,163.01 191.71,163.63 C191.83,164.25 189.91,165.52 187.46,166.46 C185.01,167.40 182.65,168.81 182.20,169.60 C181.76,170.40 179.99,171.22 178.27,171.44 C176.54,171.66 174.29,172.68 172.37,173.95 C175.25,171.51 178.85,169.00 179.92,169.00 C181.17,169.00 194.00,157.84 194.00,156.75 C194.00,156.43 192.54,157.16 190.38,158.50 C192.74,156.96 195.14,155.45 197.60,153.98 C193.38,156.88 196.89,156.45 203.85,153.00 ZM 95.67 430.26 C95.87,410.59 95.65,383.25 95.17,369.50 C94.41,347.18 94.30,351.07 94.16,405.92 C94.07,439.70 94.29,467.04 94.66,466.68 C95.02,466.32 95.47,449.93 95.67,430.26 ZM 226.00 385.33 C226.00,416.79 225.85,420.00 224.36,420.00 C222.94,420.00 222.81,419.15 223.40,413.75 C223.78,410.31 224.34,394.90 224.65,379.50 C224.96,364.10 225.39,351.31 225.61,351.08 C225.82,350.85 226.00,366.27 226.00,385.33 ZM 257.00 286.50 C257.00,291.32 255.89,292.78 253.98,290.48 C253.13,289.45 252.97,287.51 253.47,284.24 C254.30,278.91 254.29,276.24 253.42,267.21 C252.83,261.03 254.00,257.26 256.11,258.57 C257.22,259.25 257.20,271.02 256.09,276.77 C255.63,279.14 255.65,281.28 256.13,281.58 C256.61,281.88 257.00,284.09 257.00,286.50 ZM 255.95 342.50 C256.25,355.70 256.25,372.80 255.94,380.50 L 255.39 394.50 L 255.18 381.50 C255.04,372.67 254.66,368.98 254.00,370.00 C253.29,371.10 253.03,370.38 253.02,367.31 C253.01,365.00 253.45,362.84 254.00,362.50 C254.61,362.13 255.08,353.35 255.20,340.19 L 255.40 318.50 ZM 372.82 436.20 C373.00,434.99 372.84,434.00 372.48,434.00 C372.24,434.00 371.77,434.34 371.19,434.90 C373.20,432.32 375.34,428.19 376.25,425.00 C376.49,424.14 377.21,425.12 377.93,427.31 C379.03,430.63 378.98,431.37 377.50,433.00 C376.57,434.03 376.08,435.31 376.41,435.85 C376.74,436.39 375.24,438.67 373.08,440.91 C370.92,443.16 368.97,445.00 368.75,445.00 C367.68,445.00 367.19,443.66 367.74,442.24 C368.02,441.50 368.02,441.16 367.72,441.17 C368.10,440.96 368.57,440.69 369.13,440.36 C371.02,439.26 372.64,437.44 372.82,436.20 ZM 355.00 213.00 C355.00,213.55 354.50,214.00 353.89,214.00 C353.28,214.00 353.03,213.37 353.32,212.60 C354.11,210.54 348.46,210.02 326.15,210.08 C315.51,210.11 306.52,209.86 306.18,209.51 C305.84,209.17 317.12,208.97 331.25,209.07 C351.02,209.20 357.36,209.56 358.73,210.59 C360.35,211.82 360.27,211.94 357.75,211.97 C356.24,211.99 355.00,212.45 355.00,213.00 ZM 222.87 312.25 C222.80,320.64 222.43,332.45 222.04,338.50 C221.48,347.35 221.31,344.36 221.17,323.25 C221.06,306.30 221.35,297.00 222.00,297.00 C222.63,297.00 222.95,302.67 222.87,312.25 ZM 321.00 488.04 C320.05,488.70 311.99,488.97 298.85,488.79 C287.49,488.63 278.64,488.22 279.19,487.88 C281.03,486.75 322.64,486.90 321.00,488.04 ZM 370.58 220.67 C369.78,220.36 368.98,220.57 368.79,221.13 C368.29,222.63 365.00,218.65 365.00,216.56 C365.00,215.15 365.57,214.90 367.75,215.35 C369.26,215.66 369.95,215.68 369.28,215.39 C368.48,215.04 368.99,214.04 370.78,212.50 C372.28,211.20 373.87,210.50 374.33,210.95 C375.16,211.76 373.33,215.90 371.60,217.15 C371.11,217.51 371.00,218.57 371.37,219.51 C371.84,220.74 371.62,221.07 370.58,220.67 ZM 99.62 302.00 L 99.91 291.50 L 97.99 300.50 C96.94,305.45 96.08,311.52 96.08,314.00 L 96.08 318.50 L 97.71 315.50 C98.85,313.40 99.42,309.36 99.62,302.00 ZM 168.48 178.06 C168.49,178.04 168.49,178.03 168.50,178.01 C168.62,178.34 170.05,177.38 171.98,175.63 C175.94,172.06 178.28,170.75 176.16,173.30 C175.57,174.02 175.33,175.54 175.63,176.68 C176.08,178.43 175.79,178.68 173.77,178.30 C172.34,178.02 170.85,178.47 170.07,179.42 C168.57,181.22 168.05,181.32 166.12,180.03 C166.99,179.94 168.13,179.18 168.48,178.06 ZM 292.99 424.51 C291.84,425.90 290.00,426.55 290.00,425.57 C290.00,425.33 290.44,423.98 290.98,422.57 C291.85,420.27 292.46,420.02 296.73,420.15 L 301.50 420.30 L 292.50 421.70 L 296.50 421.91 C300.07,422.10 300.25,422.23 298.16,423.07 C296.87,423.58 295.46,423.78 295.02,423.51 C294.58,423.24 293.67,423.69 292.99,424.51 ZM 239.63 213.92 C237.78,215.06 235.87,215.99 235.38,215.98 C234.90,215.98 235.13,215.57 235.90,215.09 C236.66,214.60 237.04,213.55 236.74,212.76 C235.73,210.14 237.40,208.82 240.33,209.94 C241.80,210.49 243.00,211.15 243.00,211.39 C243.00,211.64 241.48,212.77 239.63,213.92 ZM 229.65 430.81 C231.19,433.28 229.06,437.66 227.21,435.81 C225.61,434.21 225.64,429.00 227.26,429.00 C227.95,429.00 229.03,429.81 229.65,430.81 ZM 321.00 402.04 C314.52,402.94 311.27,402.93 304.50,402.00 C301.12,401.54 303.87,401.31 313.00,401.30 C323.27,401.29 325.18,401.46 321.00,402.04 ZM 350.65 388.52 C350.91,389.22 350.95,391.52 350.73,393.64 L 350.34 397.50 L 350.09 393.00 C349.95,390.52 349.63,389.01 349.37,389.64 C348.87,390.86 345.00,390.29 345.00,389.00 C345.00,387.62 350.13,387.18 350.65,388.52 ZM 98.00 481.00 C98.00,482.33 98.67,483.00 100.00,483.00 C102.37,483.00 102.68,480.48 100.42,479.61 C98.12,478.73 98.00,478.80 98.00,481.00 ZM 225.97 254.25 C226.00,258.39 225.47,259.04 224.51,256.02 C224.16,254.93 224.34,253.24 224.91,252.27 C225.75,250.83 225.94,251.19 225.97,254.25 ZM 154.45 188.35 C152.73,190.26 150.78,192.48 148.62,195.00 C143.35,201.15 139.52,205.84 136.11,210.47 C141.65,202.87 147.75,195.52 154.45,188.35 ZM 167.00 182.00 C167.00,182.55 166.52,183.00 165.94,183.00 C165.36,183.00 165.16,182.55 165.50,182.00 C165.84,181.45 166.32,181.00 166.56,181.00 C166.80,181.00 167.00,181.45 167.00,182.00 ZM 129.75 219.66 C128.93,220.93 128.10,222.24 127.23,223.62 C124.78,227.54 120.70,234.94 117.38,241.29 C121.07,233.85 125.19,226.65 129.75,219.66 ZM 250.71 130.66 C255.89,129.10 261.10,127.73 266.32,126.56 C267.61,126.27 268.93,125.99 270.30,125.71 C264.45,126.97 257.13,128.84 250.71,130.66 ZM 167.15 176.60 C167.64,176.11 168.26,175.54 169.00,174.87 C173.40,170.90 178.19,167.05 183.29,163.37 C177.35,167.76 170.53,173.37 167.15,176.60 ZM 204.44 150.05 C209.31,147.37 214.35,144.83 219.50,142.46 C214.43,144.92 208.76,147.76 204.44,150.05 ZM 374.47 416.82 C374.56,420.29 374.68,422.43 374.83,423.37 C374.80,423.58 374.77,423.81 374.74,424.07 C374.64,424.87 374.55,422.10 374.47,416.82 ZM 366.43 441.18 C366.64,440.58 367.33,439.49 368.31,438.24 C367.76,438.98 367.25,439.73 366.86,440.41 C366.68,440.72 366.54,440.98 366.43,441.18 Z" fill="rgb(245,189,189)"/>
<path d="M 215.64 490.50 C215.24,489.45 215.73,488.99 217.28,488.95 C218.50,488.93 230.82,488.95 244.66,489.00 L 269.82 489.09 L 270.48 486.10 C270.84,484.46 270.64,482.19 270.03,481.06 C268.95,479.04 268.23,479.00 234.59,479.00 C233.63,479.00 232.71,479.00 231.80,479.00 L 231.80 479.00 C205.58,479.00 199.96,479.00 198.50,481.46 C198.04,482.22 197.98,483.21 197.84,484.50 C197.50,487.48 197.44,487.50 190.00,488.07 L 182.50 488.64 L 191.75 488.82 C199.23,488.97 201.00,489.29 201.00,490.50 C201.00,491.07 201.34,491.44 202.34,491.66 C187.48,491.65 173.68,491.63 161.25,491.61 C161.76,491.36 162.00,491.00 162.00,490.50 C162.00,489.67 162.87,489.00 163.94,489.00 C165.01,489.00 166.16,488.55 166.50,488.00 C166.84,487.45 166.64,487.00 166.06,487.00 C165.48,487.00 165.00,485.74 165.00,484.20 C165.00,480.26 163.30,479.00 158.00,479.00 C152.41,479.00 151.00,480.25 151.00,485.20 C151.00,488.90 151.09,489.00 154.75,489.12 C156.81,489.18 157.71,489.44 156.75,489.69 C154.70,490.22 154.55,491.09 155.79,491.59 C142.33,491.56 130.67,491.52 121.23,491.47 C122.34,491.34 123.00,491.18 123.00,491.00 C123.00,490.43 119.44,489.91 114.75,489.79 C110.21,489.67 114.38,489.33 124.00,489.04 L 141.50 488.50 L 141.81 485.80 C141.98,484.31 141.63,482.18 141.03,481.05 C139.99,479.11 139.03,479.00 123.71,478.98 C114.80,478.98 106.99,478.64 106.38,478.23 C105.76,477.83 104.94,476.04 104.55,474.26 C104.01,471.78 104.34,470.33 105.97,468.05 C107.95,465.26 107.99,464.88 106.54,462.07 C105.20,459.50 104.96,452.34 104.82,411.82 L 104.66 364.57 L 107.51 362.99 C111.47,360.80 111.58,359.55 108.02,357.01 L 104.94 354.82 L 105.18 342.97 C105.38,332.97 105.15,330.82 103.71,329.23 C102.77,328.19 102.32,327.01 102.72,326.62 C103.12,326.22 103.32,324.44 103.16,322.66 C103.01,320.89 103.36,318.18 103.94,316.65 C104.66,314.78 104.67,313.26 104.00,312.00 C102.57,309.32 104.32,305.43 107.69,303.82 C111.69,301.90 111.17,299.82 106.11,297.39 C103.50,296.14 102.18,295.00 102.86,294.59 C103.49,294.20 104.45,294.16 105.00,294.50 C105.55,294.84 106.00,294.75 106.00,294.30 C106.00,293.84 107.01,293.03 108.25,292.49 C110.26,291.60 110.53,290.69 110.79,283.75 C111.00,278.27 111.46,276.00 112.36,276.00 C113.07,276.00 114.86,274.14 116.34,271.88 C118.52,268.55 119.01,266.72 118.87,262.38 C118.77,259.42 118.36,257.00 117.95,257.00 C117.55,257.00 116.95,256.30 116.62,255.45 C116.28,254.56 116.44,254.16 117.01,254.51 C117.56,254.84 118.00,254.52 118.00,253.80 C118.00,253.07 119.01,252.03 120.25,251.49 C121.49,250.94 122.64,249.49 122.82,248.25 C123.00,247.01 123.78,246.00 124.57,246.00 C125.36,246.00 126.01,245.44 126.02,244.75 C126.03,243.92 126.34,244.00 126.97,244.99 C127.61,246.00 127.77,244.88 127.46,241.55 C127.15,238.24 127.41,236.37 128.25,235.85 C128.94,235.42 129.57,233.37 129.67,231.29 C129.90,226.04 129.91,225.99 130.75,226.11 C131.16,226.17 132.49,225.90 133.70,225.50 C135.48,224.93 135.96,223.91 136.20,220.15 C136.46,216.18 136.91,215.32 139.35,214.15 C141.14,213.30 142.94,211.13 144.18,208.34 C145.52,205.30 146.67,203.98 147.78,204.20 C148.69,204.37 150.37,203.61 151.54,202.51 C153.88,200.28 155.70,196.45 153.88,197.57 C153.14,198.03 153.02,197.51 153.51,195.96 C154.59,192.56 159.96,188.50 163.37,188.50 C167.09,188.50 167.74,186.74 165.03,184.03 C163.87,182.87 163.20,181.49 163.52,180.96 C164.24,179.81 164.06,179.56 163.25,180.04 C163.20,180.04 163.15,180.05 163.10,180.07 C165.28,178.05 167.52,176.08 169.80,174.16 C169.53,174.39 169.26,174.63 169.00,174.87 C168.26,175.54 167.64,176.11 167.15,176.60 C165.80,177.88 165.00,178.79 165.00,179.10 C165.00,179.82 165.49,180.10 166.12,180.03 C168.05,181.32 168.57,181.22 170.07,179.42 C170.85,178.47 172.34,178.02 173.77,178.30 C175.79,178.68 176.08,178.43 175.63,176.68 C175.33,175.54 175.57,174.02 176.16,173.30 C178.28,170.75 175.94,172.06 171.98,175.63 C170.05,177.38 168.62,178.34 168.50,178.01 C168.79,177.22 170.42,175.60 172.37,173.95 C174.29,172.68 176.54,171.66 178.27,171.44 C179.99,171.22 181.76,170.40 182.20,169.60 C182.65,168.81 185.01,167.40 187.46,166.46 C189.91,165.52 191.83,164.25 191.71,163.63 C191.59,163.01 192.33,162.64 193.35,162.82 C194.37,162.99 194.94,162.72 194.63,162.21 C194.31,161.70 195.17,161.50 196.54,161.76 C199.33,162.30 202.34,160.32 201.61,158.43 C200.89,156.54 204.29,154.00 207.58,153.98 C209.19,153.98 211.18,153.54 212.00,153.02 C213.27,152.21 213.29,151.73 212.18,149.93 C211.69,149.14 211.36,148.61 211.25,148.22 C211.93,147.74 213.18,147.07 214.74,146.34 C215.54,146.25 216.00,146.47 216.00,146.99 C216.00,147.61 215.64,147.90 215.20,147.62 C214.76,147.35 213.75,147.59 212.95,148.15 C211.89,148.90 212.34,149.02 214.66,148.63 C216.92,148.24 217.98,148.52 218.40,149.60 C218.72,150.44 218.55,150.84 218.00,150.50 C217.46,150.16 216.22,150.34 215.26,150.89 C213.74,151.76 213.83,151.88 216.00,151.85 C221.45,151.76 222.99,150.95 224.46,147.45 C225.98,143.81 231.07,140.70 233.80,141.75 C234.57,142.05 235.52,141.78 235.91,141.15 C236.30,140.52 239.92,139.14 243.95,138.08 C247.99,137.02 251.62,135.62 252.02,134.96 C252.75,133.79 257.25,132.56 266.00,131.15 C268.48,130.75 271.07,130.08 271.75,129.65 C272.44,129.23 273.00,129.32 273.00,129.85 C273.00,130.40 275.44,130.17 278.75,129.30 C282.94,128.20 286.82,127.97 293.04,128.46 C300.88,129.06 301.74,128.95 303.47,127.04 C305.10,125.23 306.42,124.98 313.42,125.09 C317.87,125.16 322.12,125.73 322.89,126.35 C323.73,127.03 327.48,127.37 332.39,127.22 C336.85,127.08 342.98,126.93 346.00,126.88 C349.02,126.84 352.85,126.75 354.50,126.70 C358.93,126.55 413.53,126.80 435.88,127.07 C453.00,127.27 455.36,127.11 456.18,125.65 C456.86,124.43 458.52,124.00 462.49,124.00 C467.19,124.00 467.86,124.24 467.73,125.93 C467.65,126.99 467.23,127.64 466.79,127.37 C466.36,127.10 466.00,127.36 466.00,127.94 C466.00,128.52 464.65,129.00 463.00,129.00 C461.35,129.00 460.00,129.45 460.00,130.00 C460.00,130.55 461.35,131.00 463.00,131.00 C465.93,131.00 466.00,131.11 466.00,136.00 C466.00,138.75 466.45,141.00 467.00,141.00 C467.55,141.00 468.03,141.79 468.07,142.75 C468.13,144.25 468.27,144.21 469.00,142.50 C469.13,142.19 469.27,141.51 469.38,140.58 L 469.50 141.50 L 469.58 138.71 C469.77,136.40 469.91,133.34 469.93,130.25 L 469.96 125.77 L 469.73 305.75 L 469.50 491.50 L 404.71 491.56 C405.53,491.42 406.00,491.26 406.00,491.08 C406.00,490.58 405.44,489.94 404.75,489.66 C404.06,489.38 405.39,489.12 407.69,489.08 C410.00,489.04 412.16,488.55 412.50,488.00 C412.84,487.45 412.64,487.00 412.06,487.00 C411.48,487.00 411.00,485.74 411.00,484.20 C411.00,479.58 409.54,479.00 397.84,479.00 C388.22,479.00 386.96,479.21 386.04,480.93 C385.47,482.00 385.00,483.78 385.00,484.88 C385.00,485.99 384.21,487.36 383.25,487.92 C381.80,488.76 382.06,488.94 384.75,488.97 C386.96,488.99 388.00,489.48 388.00,490.50 C388.00,491.00 388.28,491.34 389.10,491.57 L 339.07 491.61 C339.65,491.46 340.00,491.27 340.00,491.07 C340.00,490.56 339.21,489.94 338.25,489.69 C336.11,489.13 349.41,488.78 365.15,488.99 C372.51,489.09 377.04,488.75 377.46,488.07 C377.83,487.47 377.38,487.00 376.44,487.00 C375.22,487.00 374.92,486.42 375.33,484.84 C375.64,483.65 375.45,481.85 374.91,480.84 C374.00,479.14 372.25,479.00 351.52,479.00 C329.50,479.00 329.09,479.04 327.56,481.22 C325.24,484.53 325.50,489.00 328.00,489.00 C329.11,489.00 330.00,489.67 330.00,490.50 C330.00,491.02 330.26,491.38 330.91,491.62 L 282.25 491.66 C258.55,491.68 235.82,491.68 214.88,491.67 C215.73,491.45 215.86,491.08 215.64,490.50 ZM 366.43 441.18 C366.00,442.01 366.23,442.01 367.72,441.17 C368.02,441.16 368.02,441.50 367.74,442.24 C367.19,443.66 367.68,445.00 368.75,445.00 C368.97,445.00 370.92,443.16 373.08,440.91 C375.24,438.67 376.74,436.39 376.41,435.85 C376.08,435.31 376.57,434.03 377.50,433.00 C378.98,431.37 379.03,430.63 377.93,427.31 C377.21,425.12 376.49,424.14 376.25,425.00 C375.34,428.19 373.20,432.32 371.19,434.90 C371.13,434.96 371.06,435.02 370.99,435.09 C373.54,429.50 373.58,415.48 373.72,354.25 C373.74,347.43 373.76,340.04 373.78,332.00 C373.82,319.17 373.85,307.99 373.87,298.24 C374.03,312.07 374.23,318.89 374.60,322.02 C374.74,323.75 374.90,324.50 375.08,324.32 C375.10,324.30 375.12,324.27 375.14,324.23 C375.26,324.38 375.39,324.41 375.53,324.35 C376.66,323.92 377.00,324.63 377.00,327.39 C377.00,329.38 377.34,331.00 377.75,331.00 C378.16,331.00 378.50,312.66 378.50,290.25 L 378.50 249.50 L 380.75 247.25 C381.72,246.28 382.34,245.67 382.64,244.94 C383.15,243.68 382.73,242.04 381.56,237.52 L 381.50 237.30 C379.25,228.57 377.88,225.60 376.82,227.18 C376.28,227.99 376.20,227.38 376.62,225.59 C377.17,223.22 377.01,222.78 375.77,223.26 C374.93,223.58 373.85,223.45 373.37,222.97 C372.88,222.48 372.67,223.91 372.89,226.30 C372.94,226.90 373.01,228.93 373.08,232.05 C372.89,230.60 372.67,229.72 372.40,229.00 C370.25,223.19 366.69,219.38 360.66,216.45 L 355.83 214.10 L 301.66 213.94 C252.53,213.80 247.10,213.95 243.23,215.51 C237.73,217.73 231.55,224.75 230.13,230.40 C229.37,233.43 229.01,264.72 228.98,332.43 C228.92,429.14 228.94,430.11 230.96,432.95 C232.08,434.52 233.00,436.43 233.00,437.20 C233.00,439.36 242.91,446.43 246.91,447.13 C248.89,447.47 274.12,447.70 303.00,447.63 C305.04,447.62 307.00,447.62 308.89,447.61 C350.58,447.52 357.98,447.50 362.71,443.94 C363.95,443.02 365.00,441.85 366.44,440.37 C366.82,439.98 367.18,439.63 367.52,439.31 C366.96,440.10 366.58,440.76 366.43,441.18 ZM 249.48 252.50 C249.53,252.39 249.61,252.06 249.69,251.50 C249.95,249.85 250.47,248.18 250.85,247.78 C252.09,246.49 349.67,246.29 351.43,247.57 C352.83,248.60 353.00,256.90 353.00,325.50 C353.00,397.45 352.89,402.36 351.25,403.61 C349.85,404.67 339.71,404.94 300.81,404.97 C269.39,404.99 251.90,404.65 251.50,404.00 C250.57,402.49 249.00,402.80 249.00,404.50 C249.00,405.81 255.50,406.00 301.49,406.00 L 248.99 406.00 L 249.24 325.75 ZM 467.00 488.00 C467.00,487.45 466.33,487.00 465.50,487.00 C464.58,487.00 464.00,486.07 464.00,484.61 C464.00,482.16 462.35,481.00 458.86,481.00 C457.77,481.00 457.16,480.55 457.50,480.00 C458.44,478.48 434.72,478.68 433.20,480.20 C432.54,480.86 432.00,482.66 432.00,484.20 C432.00,485.74 431.52,487.00 430.94,487.00 C430.36,487.00 430.16,487.45 430.50,488.00 C430.87,488.61 438.18,489.00 449.06,489.00 C460.35,489.00 467.00,488.63 467.00,488.00 ZM 374.47 416.82 L 374.47 416.82 C374.55,422.10 374.64,424.87 374.74,424.07 C374.77,423.81 374.80,423.58 374.83,423.37 C374.95,424.06 375.07,424.09 375.22,423.50 C375.30,423.16 375.38,422.52 375.46,421.61 C375.61,421.54 375.78,421.64 375.95,421.92 C377.04,423.68 379.44,413.53 378.48,411.24 C377.64,409.25 377.83,346.80 378.68,343.00 C379.22,340.56 379.20,340.55 377.65,342.50 C376.78,343.60 375.99,345.40 375.90,346.50 C375.81,347.60 375.41,346.93 375.00,345.00 C374.89,344.47 374.78,345.42 374.69,347.57 C374.41,352.70 374.23,366.09 374.23,384.50 C374.23,400.00 374.31,410.56 374.47,416.82 ZM 292.99 424.51 C293.67,423.69 294.58,423.24 295.02,423.51 C295.46,423.78 296.87,423.58 298.16,423.07 C300.25,422.23 300.07,422.10 296.50,421.91 L 292.50 421.70 L 301.50 420.30 L 296.83 420.15 C298.35,420.04 300.16,420.00 302.29,420.00 C310.80,420.00 312.05,420.23 312.96,421.93 C314.52,424.85 314.21,429.58 312.35,431.12 C311.30,432.00 307.42,432.60 301.55,432.79 C291.22,433.14 289.00,431.99 289.00,426.33 C289.00,423.69 289.62,422.10 291.66,421.17 C291.41,421.52 291.20,421.98 290.98,422.57 C290.44,423.98 290.00,425.33 290.00,425.57 C290.00,426.55 291.84,425.90 292.99,424.51 ZM 226.00 385.33 C226.00,366.27 225.82,350.85 225.61,351.08 C225.39,351.31 224.96,364.10 224.65,379.50 C224.34,394.90 223.78,410.31 223.40,413.75 C222.81,419.15 222.94,420.00 224.36,420.00 C225.85,420.00 226.00,416.79 226.00,385.33 ZM 257.00 286.50 C257.00,284.09 256.61,281.88 256.13,281.58 C255.65,281.28 255.63,279.14 256.09,276.77 C257.20,271.02 257.22,259.25 256.11,258.57 C254.00,257.26 252.83,261.03 253.42,267.21 C254.29,276.24 254.30,278.91 253.47,284.24 C252.97,287.51 253.13,289.45 253.98,290.48 C255.89,292.78 257.00,291.32 257.00,286.50 ZM 255.95 342.50 L 255.40 318.50 L 255.20 340.19 C255.08,353.35 254.61,362.13 254.00,362.50 C253.45,362.84 253.01,365.00 253.02,367.31 C253.03,370.38 253.29,371.10 254.00,370.00 C254.66,368.98 255.04,372.67 255.18,381.50 L 255.39 394.50 L 255.94 380.50 C256.25,372.80 256.25,355.70 255.95,342.50 ZM 355.00 213.00 C355.00,212.45 356.24,211.99 357.75,211.97 C360.27,211.94 360.35,211.82 358.73,210.59 C357.36,209.56 351.02,209.20 331.25,209.07 C317.12,208.97 305.84,209.17 306.18,209.51 C306.52,209.86 315.51,210.11 326.15,210.08 C348.46,210.02 354.11,210.54 353.32,212.60 C353.03,213.37 353.28,214.00 353.89,214.00 C354.50,214.00 355.00,213.55 355.00,213.00 ZM 222.87 312.25 C222.95,302.67 222.63,297.00 222.00,297.00 C221.35,297.00 221.06,306.30 221.17,323.25 C221.31,344.36 221.48,347.35 222.04,338.50 C222.43,332.45 222.80,320.64 222.87,312.25 ZM 321.00 488.04 C322.64,486.90 281.03,486.75 279.19,487.88 C278.64,488.22 287.49,488.63 298.85,488.79 C311.99,488.97 320.05,488.70 321.00,488.04 ZM 370.58 220.67 C371.62,221.07 371.84,220.74 371.37,219.51 C371.00,218.57 371.11,217.51 371.60,217.15 C373.33,215.90 375.16,211.76 374.33,210.95 C373.87,210.50 372.28,211.20 370.78,212.50 C368.99,214.04 368.48,215.04 369.28,215.39 C369.95,215.68 369.26,215.66 367.75,215.35 C365.57,214.90 365.00,215.15 365.00,216.56 C365.00,218.65 368.29,222.63 368.79,221.13 C368.98,220.57 369.78,220.36 370.58,220.67 ZM 239.63 213.92 C241.48,212.77 243.00,211.64 243.00,211.39 C243.00,211.15 241.80,210.49 240.33,209.94 C237.40,208.82 235.73,210.14 236.74,212.76 C237.04,213.55 236.66,214.60 235.90,215.09 C235.13,215.57 234.90,215.98 235.38,215.98 C235.87,215.99 237.78,215.06 239.63,213.92 ZM 229.65 430.81 C229.03,429.81 227.95,429.00 227.26,429.00 C225.64,429.00 225.61,434.21 227.21,435.81 C229.06,437.66 231.19,433.28 229.65,430.81 ZM 321.00 402.04 C325.18,401.46 323.27,401.29 313.00,401.30 C303.87,401.31 301.12,401.54 304.50,402.00 C311.27,402.93 314.52,402.94 321.00,402.04 ZM 350.65 388.52 C350.13,387.18 345.00,387.62 345.00,389.00 C345.00,390.29 348.87,390.86 349.37,389.64 C349.63,389.01 349.95,390.52 350.09,393.00 L 350.34 397.50 L 350.73 393.64 C350.95,391.52 350.91,389.22 350.65,388.52 ZM 98.00 481.00 C98.00,478.80 98.12,478.73 100.42,479.61 C102.68,480.48 102.37,483.00 100.00,483.00 C98.67,483.00 98.00,482.33 98.00,481.00 ZM 225.97 254.25 C225.94,251.19 225.75,250.83 224.91,252.27 C224.34,253.24 224.16,254.93 224.51,256.02 C225.47,259.04 226.00,258.39 225.97,254.25 ZM 361.41 447.14 C361.71,446.67 361.69,446.02 361.38,445.71 C360.59,444.93 358.00,446.00 358.00,447.11 C358.00,448.25 360.71,448.28 361.41,447.14 ZM 129.75 219.66 L 129.75 219.67 C127.06,223.79 124.53,227.98 122.14,232.25 C129.75,218.50 138.77,205.79 149.13,194.23 C144.48,199.52 140.14,204.93 136.11,210.47 C133.91,213.44 131.88,216.39 129.75,219.66 ZM 167.00 182.00 C167.00,181.45 166.80,181.00 166.56,181.00 C166.32,181.00 165.84,181.45 165.50,182.00 C165.16,182.55 165.36,183.00 165.94,183.00 C166.52,183.00 167.00,182.55 167.00,182.00 ZM 94.66 491.17 C94.64,491.17 94.62,491.16 94.62,491.16 C94.41,490.80 94.17,455.17 94.09,412.00 C94.17,454.22 94.42,489.26 94.66,491.17 ZM 280.10 123.90 C290.85,122.08 302.37,120.74 315.00,119.80 C303.27,120.67 291.54,122.05 281.08,123.75 C280.76,123.80 280.43,123.85 280.10,123.90 ZM 232.21 137.02 C233.47,136.52 234.73,136.04 236.00,135.56 L 235.72 135.71 C234.56,136.15 233.41,136.59 232.27,137.04 C232.25,137.03 232.23,137.03 232.21,137.02 ZM 250.71 130.66 C250.12,130.83 249.53,130.99 248.95,131.16 C251.35,130.43 253.77,129.74 256.22,129.08 C254.38,129.58 252.54,130.11 250.71,130.66 Z" fill="rgb(246,190,191)"/>
<path d="M 470.01 699.08 L 470.02 884.50 L 384.76 884.62 C337.87,884.68 298.38,884.57 297.00,884.36 C295.62,884.16 289.33,883.27 283.00,882.39 C251.20,877.96 223.27,868.24 196.31,852.23 C170.09,836.66 147.68,815.96 129.22,790.23 C126.35,786.23 124.00,782.69 124.00,782.37 C124.00,782.04 121.74,778.03 118.97,773.45 C116.20,768.87 113.44,763.63 112.82,761.81 C112.21,759.99 111.35,758.03 110.91,757.46 C108.72,754.63 101.02,731.60 98.55,720.50 C93.75,698.98 93.77,699.41 93.30,604.62 C93.06,555.19 93.24,514.36 93.71,513.89 C94.54,513.06 468.76,512.42 469.58,513.25 C469.80,513.47 470.00,597.10 470.01,699.08 ZM 364.64 786.83 C369.50,784.45 369.48,784.73 369.79,716.03 L 370.07 651.55 L 377.62 659.53 C381.77,663.91 384.69,666.60 384.11,665.50 C383.80,664.92 383.14,664.05 382.25,663.01 C387.19,667.94 388.35,668.38 391.00,668.05 C391.83,667.94 399.14,661.26 407.25,653.19 C419.26,641.25 422.00,638.00 422.00,635.72 C422.00,633.54 419.27,629.87 409.75,619.28 C403.01,611.78 394.30,602.01 390.39,597.57 C382.43,588.54 379.95,586.26 373.77,582.34 C364.29,576.31 346.81,569.49 339.08,568.80 C335.90,568.52 335.47,568.85 332.93,573.50 C323.10,591.50 305.53,598.21 288.86,590.34 C281.44,586.84 275.16,580.83 271.09,573.34 C268.55,568.66 268.33,568.51 264.48,568.85 C258.97,569.34 245.70,573.63 238.50,577.26 C230.33,581.37 222.12,587.85 216.34,594.75 C207.95,604.76 197.78,616.23 189.76,624.73 C183.97,630.86 182.00,633.65 182.00,635.69 C182.00,637.89 185.03,641.46 197.39,653.82 C210.77,667.20 213.08,669.12 215.14,668.53 C216.44,668.16 220.88,664.28 225.00,659.90 C229.12,655.53 232.84,651.96 233.25,651.97 C233.66,651.99 234.01,679.79 234.02,713.75 C234.04,747.71 234.45,777.23 234.94,779.35 C235.97,783.79 239.31,787.76 242.37,788.20 C243.54,788.36 251.02,788.14 259.00,787.70 C264.27,787.41 277.27,787.26 292.23,787.29 C277.48,787.31 264.02,787.53 257.00,787.96 C250.58,788.35 270.24,788.65 301.50,788.65 C339.51,788.64 351.56,788.42 339.00,787.95 C334.87,787.79 330.14,787.67 325.07,787.56 C344.45,787.74 360.03,787.60 361.43,787.21 C363.05,786.76 365.18,785.29 366.18,783.95 C366.28,783.80 366.38,783.65 366.48,783.47 C365.76,785.88 364.73,786.16 363.19,786.64 C362.26,786.93 360.60,787.58 359.50,788.09 C357.81,788.87 357.88,788.92 360.00,788.44 C361.38,788.13 363.46,787.40 364.64,786.83 ZM 370.02 651.43 C369.71,651.26 369.50,651.20 369.41,651.26 C369.41,651.25 369.42,651.25 369.42,651.25 C369.49,651.17 369.70,651.24 370.02,651.43 Z" fill="rgb(252,216,191)"/>
<path d="M 0.00 524.00 L 0.00 0.00 L 500.50 0.00 L 1001.00 0.00 L 1001.00 524.00 L 1001.00 1048.00 L 500.50 1048.00 L 0.00 1048.00 L 0.00 524.00 ZM 681.50 882.11 C721.05,875.41 754.43,861.59 784.00,839.68 C802.88,825.69 829.71,795.87 839.05,778.50 C850.09,757.98 854.64,746.74 859.50,728.06 C865.54,704.81 865.39,707.75 865.75,605.75 L 866.08 511.99 L 678.29 512.25 L 490.50 512.50 L 490.25 698.74 L 489.99 884.98 L 530.25 885.24 C552.39,885.38 592.55,885.23 619.50,884.91 C663.73,884.37 669.77,884.10 681.50,882.11 ZM 470.01 699.08 C470.00,597.10 469.80,513.47 469.58,513.25 C468.76,512.42 94.54,513.06 93.71,513.89 C93.24,514.36 93.06,555.19 93.30,604.62 C93.77,699.41 93.75,698.98 98.55,720.50 C101.02,731.60 108.72,754.63 110.91,757.46 C111.35,758.03 112.21,759.99 112.82,761.81 C113.44,763.63 116.20,768.87 118.97,773.45 C121.74,778.03 124.00,782.04 124.00,782.37 C124.00,782.69 126.35,786.23 129.22,790.23 C147.68,815.96 170.09,836.66 196.31,852.23 C223.27,868.24 251.20,877.96 283.00,882.39 C289.33,883.27 295.62,884.16 297.00,884.36 C298.38,884.57 337.87,884.68 384.76,884.62 L 470.02 884.50 L 470.01 699.08 ZM 469.73 305.75 L 469.97 120.00 L 393.73 119.81 C351.81,119.70 316.38,119.70 315.00,119.80 C273.99,122.85 244.62,130.12 215.50,144.44 C152.99,175.18 112.12,228.94 98.01,299.00 C94.49,316.50 93.93,332.51 94.09,412.00 C94.17,455.17 94.41,490.80 94.62,491.16 C94.83,491.52 179.27,491.75 282.25,491.66 L 469.50 491.50 L 469.73 305.75 ZM 865.50 406.00 C865.50,342.24 865.18,318.14 864.23,311.22 C862.39,297.86 857.44,277.09 853.33,265.50 C849.24,253.97 840.13,234.48 835.90,228.20 C834.30,225.83 833.00,223.54 833.00,223.10 C833.00,222.67 832.10,221.50 831.00,220.50 C829.90,219.50 829.00,218.28 829.00,217.77 C829.00,215.59 816.51,200.47 804.50,188.13 C768.39,151.01 727.59,130.99 670.43,122.34 C661.11,120.93 647.09,120.63 575.25,120.28 L 491.00 119.88 L 490.91 127.69 C490.52,163.22 490.96,490.13 491.41,490.85 C491.75,491.41 565.20,491.72 678.74,491.64 L 865.50 491.50 L 865.50 406.00 ZM 617.00 789.06 C597.72,788.48 594.81,787.84 590.87,783.35 C585.92,777.72 586.00,778.72 586.00,721.55 L 586.00 668.00 L 658.50 668.00 C698.38,668.00 731.04,668.11 731.08,668.25 C731.13,668.39 731.41,691.06 731.71,718.62 C732.31,773.29 732.11,775.99 726.97,782.22 C721.46,788.91 721.85,788.85 676.46,789.26 C653.93,789.46 627.17,789.37 617.00,789.06 ZM 616.17 730.35 C617.83,728.84 618.00,726.78 618.00,708.04 C618.00,685.86 617.81,685.00 612.87,685.00 C607.32,685.00 607.00,686.27 607.02,707.82 C607.02,718.64 607.36,727.99 607.77,728.59 C608.62,729.85 612.09,731.93 613.42,731.97 C613.93,731.99 615.17,731.26 616.17,730.35 ZM 586.43 658.69 C586.16,657.97 586.06,640.01 586.22,618.78 L 586.50 580.18 L 589.56 576.34 C591.24,574.23 594.60,571.49 597.02,570.25 L 601.42 568.00 L 659.25 568.00 C714.02,568.00 717.28,568.10 720.79,569.89 C725.04,572.06 727.08,574.15 729.39,578.72 C730.78,581.47 731.08,587.30 731.47,618.72 C731.71,638.95 731.66,656.51 731.35,657.75 L 730.78 660.00 L 658.86 660.00 C600.46,660.00 586.84,659.75 586.43,658.69 ZM 616.80 644.80 C617.64,643.96 618.00,638.36 618.00,626.00 C618.00,607.06 617.73,606.00 612.86,606.00 C607.76,606.00 607.00,608.63 607.00,626.39 C607.00,639.83 607.26,642.63 608.65,644.17 C610.53,646.25 615.01,646.59 616.80,644.80 ZM 242.37 788.20 C239.31,787.76 235.97,783.79 234.94,779.35 C234.45,777.23 234.04,747.71 234.02,713.75 C234.01,679.79 233.66,651.99 233.25,651.97 C232.84,651.96 229.12,655.53 225.00,659.90 C220.88,664.28 216.44,668.16 215.14,668.53 C213.08,669.12 210.77,667.20 197.39,653.82 C185.03,641.46 182.00,637.89 182.00,635.69 C182.00,633.65 183.97,630.86 189.76,624.73 C197.78,616.23 207.95,604.76 216.34,594.75 C222.12,587.85 230.33,581.37 238.50,577.26 C245.70,573.63 258.97,569.34 264.48,568.85 C268.33,568.51 268.55,568.66 271.09,573.34 C275.16,580.83 281.44,586.84 288.86,590.34 C305.53,598.21 323.10,591.50 332.93,573.50 C335.47,568.85 335.90,568.52 339.08,568.80 C346.81,569.49 364.29,576.31 373.77,582.34 C379.95,586.26 382.43,588.54 390.39,597.57 C394.30,602.01 403.01,611.78 409.75,619.28 C419.27,629.87 422.00,633.54 422.00,635.72 C422.00,638.00 419.26,641.25 407.25,653.19 C399.14,661.26 391.83,667.94 391.00,668.05 C387.79,668.45 386.76,667.73 378.58,659.27 C373.94,654.46 369.81,650.85 369.42,651.25 C369.02,651.64 368.54,681.11 368.34,716.73 C368.01,777.35 367.87,781.66 366.18,783.95 C365.18,785.29 363.05,786.76 361.43,787.21 C359.82,787.66 339.38,787.78 316.00,787.46 C292.62,787.15 266.98,787.26 259.00,787.70 C251.02,788.14 243.54,788.36 242.37,788.20 ZM 246.91 447.13 C242.91,446.43 233.00,439.36 233.00,437.20 C233.00,436.43 232.08,434.52 230.96,432.95 C228.94,430.11 228.92,429.14 228.98,332.43 C229.01,264.72 229.37,233.43 230.13,230.40 C231.55,224.75 237.73,217.73 243.23,215.51 C247.10,213.95 252.53,213.80 301.66,213.94 L 355.83 214.10 L 360.66 216.45 C366.69,219.38 370.25,223.19 372.40,229.00 C373.92,233.10 374.04,242.20 373.78,332.00 C373.47,441.73 374.09,432.50 366.44,440.37 C359.25,447.76 361.62,447.49 303.00,447.63 C274.12,447.70 248.89,447.47 246.91,447.13 ZM 312.35 431.12 C314.21,429.58 314.52,424.85 312.96,421.93 C312.05,420.23 310.80,420.00 302.29,420.00 C291.40,420.00 289.00,421.14 289.00,426.33 C289.00,431.99 291.22,433.14 301.55,432.79 C307.42,432.60 311.30,432.00 312.35,431.12 ZM 354.00 325.49 L 354.00 244.98 L 301.75 245.24 L 249.50 245.50 L 249.24 325.75 L 248.99 406.00 L 301.49 406.00 L 354.00 406.00 L 354.00 325.49 ZM 556.22 427.96 C554.96,427.45 552.20,425.65 550.08,423.95 C547.12,421.56 546.08,419.89 545.55,416.68 C545.18,414.38 544.90,396.69 544.95,377.36 L 545.02 342.23 L 542.01 335.86 C535.03,321.12 540.92,309.11 555.59,308.17 C559.09,307.95 562.33,307.26 562.80,306.64 C563.83,305.27 573.57,283.34 574.40,280.50 C574.73,279.40 577.81,275.15 581.25,271.06 C595.99,253.51 610.33,250.23 667.50,251.30 C692.41,251.76 697.60,252.13 704.31,253.89 C721.99,258.55 732.78,267.48 740.95,284.22 C743.70,289.87 747.00,297.42 748.28,301.00 L 750.59 307.50 L 757.70 308.06 C765.72,308.69 770.14,311.04 773.80,316.62 C776.93,321.39 776.80,329.20 773.50,335.40 L 771.00 340.11 L 770.99 375.80 C770.99,397.63 770.58,412.97 769.94,415.28 C768.63,419.98 763.57,425.86 759.30,427.65 C757.40,428.44 752.43,428.99 747.28,428.98 C740.03,428.97 737.81,428.57 734.52,426.71 C729.17,423.68 726.04,417.99 726.02,411.25 L 726.00 406.00 L 658.12 406.00 L 590.24 406.00 L 589.81 411.98 C589.46,416.74 588.77,418.72 586.41,421.63 C581.60,427.58 577.90,429.01 567.52,428.94 C562.56,428.90 557.47,428.46 556.22,427.96 ZM 605.00 378.00 C606.42,376.58 607.00,374.67 607.00,371.38 C607.00,367.38 606.50,366.27 603.25,363.02 C598.87,358.64 594.18,357.35 579.12,356.36 C569.60,355.74 569.26,355.79 567.65,358.08 C566.54,359.68 566.00,362.50 566.00,366.77 C566.00,372.34 566.32,373.39 568.67,375.57 C570.14,376.93 572.50,378.30 573.92,378.61 C575.34,378.92 576.95,379.33 577.50,379.51 C578.05,379.69 584.01,379.88 590.75,379.92 C601.73,379.99 603.21,379.79 605.00,378.00 ZM 740.50 378.90 C747.41,377.01 749.00,374.73 749.00,366.65 C749.00,357.65 747.68,356.00 740.50,356.00 C731.86,356.00 718.73,358.12 714.67,360.18 C708.28,363.42 705.81,373.04 710.17,377.69 C712.21,379.86 713.09,380.00 724.42,379.99 C731.07,379.99 738.30,379.50 740.50,378.90 ZM 726.75 313.37 C729.74,312.57 729.62,311.53 725.38,301.26 C716.59,279.97 711.59,276.03 689.50,273.06 C672.22,270.74 622.67,272.29 611.44,275.50 C605.12,277.31 598.83,281.79 595.46,286.89 C592.42,291.48 583.95,312.11 584.64,313.23 C585.20,314.13 723.41,314.27 726.75,313.37 Z" fill="rgb(254,254,254)"/>
</g>
</svg>